<svg width="40" height="40" viewBox="0 0 40 40" fill="none" xmlns="http://www.w3.org/2000/svg">
<path d="M33.6399 38.7999H6.39986C5.71888 38.8051 5.0436 38.6756 4.41293 38.4186C3.78227 38.1617 3.2087 37.7824 2.72531 37.3027C2.24191 36.8231 1.85825 36.2525 1.59644 35.6238C1.33462 34.9951 1.19984 34.3209 1.19986 33.6399V6.39986C1.19454 5.71551 1.3254 5.03692 1.58484 4.40363C1.84428 3.77033 2.22711 3.19497 2.71104 2.71104C3.19497 2.22711 3.77033 1.84428 4.40363 1.58484C5.03692 1.3254 5.71551 1.19454 6.39986 1.19986H33.6799C34.3575 1.2051 35.0275 1.34375 35.6515 1.60791C36.2755 1.87207 36.8414 2.25656 37.3169 2.73943C37.7923 3.2223 38.168 3.79409 38.4224 4.42215C38.6769 5.05021 38.8051 5.72224 38.7999 6.39986V33.6799C38.7893 35.0414 38.241 36.3437 37.2745 37.3027C36.3079 38.2618 35.0015 38.7999 33.6399 38.7999ZM6.39986 2.79986C5.92592 2.79559 5.45587 2.88579 5.01717 3.0652C4.57847 3.2446 4.17991 3.50962 3.84476 3.84476C3.50962 4.17991 3.2446 4.57847 3.0652 5.01717C2.88579 5.45587 2.79559 5.92592 2.79986 6.39986V33.6799C2.81252 34.6234 3.19841 35.5235 3.87309 36.1832C4.54777 36.8428 5.4563 37.2084 6.39986 37.1999H33.6799C34.6234 37.1978 35.5277 36.822 36.1948 36.1548C36.862 35.4877 37.2378 34.5834 37.2399 33.6399V6.39986C37.2441 5.92592 37.1539 5.45587 36.9745 5.01717C36.7951 4.57847 36.5301 4.17991 36.195 3.84476C35.8598 3.50962 35.4613 3.2446 35.0226 3.0652C34.5839 2.88579 34.1138 2.79559 33.6399 2.79986H6.39986Z" fill="#D86613"/>
<path d="M33.504 17.8002H6.49604C6.28387 17.8002 6.08039 17.7159 5.93036 17.5659C5.78033 17.4159 5.69604 17.2124 5.69604 17.0002V8.0002C5.69604 7.78802 5.78033 7.58454 5.93036 7.43451C6.08039 7.28448 6.28387 7.2002 6.49604 7.2002H33.504C33.7162 7.2002 33.9197 7.28448 34.0697 7.43451C34.2198 7.58454 34.304 7.78802 34.304 8.0002V17.0002C34.304 17.2124 34.2198 17.4159 34.0697 17.5659C33.9197 17.7159 33.7162 17.8002 33.504 17.8002ZM7.29605 16.2002H32.704V8.8002H7.29605V16.2002Z" fill="#D86613"/>
<path d="M33.504 33.5521H6.49604C6.28387 33.5521 6.08039 33.4678 5.93036 33.3178C5.78033 33.1678 5.69604 32.9643 5.69604 32.7521V21.5041C5.69604 21.2919 5.78033 21.0884 5.93036 20.9384C6.08039 20.7884 6.28387 20.7041 6.49604 20.7041H33.504C33.7162 20.7041 33.9197 20.7884 34.0697 20.9384C34.2198 21.0884 34.304 21.2919 34.304 21.5041V32.7521C34.304 32.9643 34.2198 33.1678 34.0697 33.3178C33.9197 33.4678 33.7162 33.5521 33.504 33.5521ZM7.29605 31.9521H32.704V22.3041H7.29605V31.9521Z" fill="#D86613"/>
<path d="M16.3041 8H14.7041V17H16.3041V8Z" fill="#D86613"/>
<path d="M25.3041 8H23.7041V17H25.3041V8Z" fill="#D86613"/>
<path d="M16.3041 21.5039H14.7041V32.7519H16.3041V21.5039Z" fill="#D86613"/>
<path d="M25.3041 21.5039H23.7041V32.7519H25.3041V21.5039Z" fill="#D86613"/>
</svg>
