<svg width="40" height="40" viewBox="0 0 40 40" fill="none" xmlns="http://www.w3.org/2000/svg">
<path d="M31.648 25.792L30.48 24.704L34.848 20L30.48 15.296L31.648 14.208L36.52 19.456C36.6572 19.6039 36.7334 19.7982 36.7334 20C36.7334 20.2018 36.6572 20.3961 36.52 20.544L31.648 25.792Z" fill="#D86613"/>
<path d="M34.816 19.2002H16.064V20.8002H34.816V19.2002Z" fill="#D86613"/>
<path d="M10.0639 26.8002C8.71901 26.8002 7.4043 26.4014 6.28604 25.6542C5.16779 24.907 4.29621 23.845 3.78154 22.6024C3.26686 21.3599 3.1322 19.9927 3.39458 18.6736C3.65696 17.3545 4.3046 16.1429 5.25559 15.1919C6.20659 14.2409 7.41823 13.5932 8.7373 13.3309C10.0564 13.0685 11.4236 13.2031 12.6662 13.7178C13.9087 14.2325 14.9707 15.1041 15.7179 16.2223C16.4651 17.3406 16.8639 18.6553 16.8639 20.0002C16.8618 21.803 16.1447 23.5314 14.8699 24.8062C13.5951 26.081 11.8667 26.7981 10.0639 26.8002ZM10.0639 14.8002C9.03546 14.8002 8.03009 15.1052 7.17495 15.6766C6.31982 16.2479 5.65332 17.0601 5.25975 18.0102C4.86617 18.9604 4.76319 20.006 4.96384 21.0147C5.16448 22.0234 5.65973 22.9499 6.38696 23.6772C7.1142 24.4044 8.04075 24.8996 9.04945 25.1003C10.0581 25.3009 11.1037 25.1979 12.0539 24.8044C13.004 24.4108 13.8162 23.7443 14.3876 22.8892C14.9589 22.034 15.2639 21.0287 15.2639 20.0002C15.2618 18.6217 14.7133 17.3003 13.7385 16.3256C12.7638 15.3508 11.4424 14.8023 10.0639 14.8002Z" fill="#D86613"/>
</svg>
