<svg width="40" height="40" viewBox="0 0 40 40" fill="none" xmlns="http://www.w3.org/2000/svg">
<path d="M34.5199 38.8004H12.9199C12.7077 38.8004 12.5042 38.7161 12.3542 38.5661C12.2042 38.416 12.1199 38.2126 12.1199 38.0004V9.20039C12.1199 8.98822 12.2042 8.78473 12.3542 8.63471C12.5042 8.48468 12.7077 8.40039 12.9199 8.40039H34.5199C34.732 8.40039 34.9355 8.48468 35.0856 8.63471C35.2356 8.78473 35.3199 8.98822 35.3199 9.20039V38.0004C35.3199 38.2126 35.2356 38.416 35.0856 38.5661C34.9355 38.7161 34.732 38.8004 34.5199 38.8004ZM13.7199 37.2004H33.7199V10.0004H13.7199V37.2004Z" fill="#D86613"/>
<path d="M19.5118 17.2H15.9118C15.6996 17.2 15.4962 17.1157 15.3461 16.9657C15.1961 16.8157 15.1118 16.6122 15.1118 16.4V12.8C15.1118 12.5878 15.1961 12.3843 15.3461 12.2343C15.4962 12.0843 15.6996 12 15.9118 12H19.5118C19.724 12 19.9275 12.0843 20.0775 12.2343C20.2275 12.3843 20.3118 12.5878 20.3118 12.8V16.4C20.3118 16.6122 20.2275 16.8157 20.0775 16.9657C19.9275 17.1157 19.724 17.2 19.5118 17.2ZM16.7118 15.6H18.7118V13.6H16.7118V15.6Z" fill="#D86613"/>
<path d="M19.5118 25.6004H15.9118C15.6996 25.6004 15.4962 25.5161 15.3461 25.3661C15.1961 25.216 15.1118 25.0126 15.1118 24.8004V21.2004C15.1118 20.9882 15.1961 20.7847 15.3461 20.6347C15.4962 20.4847 15.6996 20.4004 15.9118 20.4004H19.5118C19.724 20.4004 19.9275 20.4847 20.0775 20.6347C20.2275 20.7847 20.3118 20.9882 20.3118 21.2004V24.8004C20.3118 25.0126 20.2275 25.216 20.0775 25.3661C19.9275 25.5161 19.724 25.6004 19.5118 25.6004ZM16.7118 24.0004H18.7118V22.0004H16.7118V24.0004Z" fill="#D86613"/>
<path d="M19.5118 34.0083H15.9118C15.6996 34.0083 15.4962 33.924 15.3461 33.774C15.1961 33.6239 15.1118 33.4205 15.1118 33.2083V29.6003C15.1118 29.3881 15.1961 29.1846 15.3461 29.0346C15.4962 28.8846 15.6996 28.8003 15.9118 28.8003H19.5118C19.724 28.8003 19.9275 28.8846 20.0775 29.0346C20.2275 29.1846 20.3118 29.3881 20.3118 29.6003V33.2083C20.3118 33.4205 20.2275 33.6239 20.0775 33.774C19.9275 33.924 19.724 34.0083 19.5118 34.0083ZM16.7118 32.4083H18.7118V30.4003H16.7118V32.4083Z" fill="#D86613"/>
<path d="M32.1278 13.8003H21.3198V15.4003H32.1278V13.8003Z" fill="#D86613"/>
<path d="M32.1278 22.1924H21.3198V23.7924H32.1278V22.1924Z" fill="#D86613"/>
<path d="M32.1278 30.6001H21.3198V32.2001H32.1278V30.6001Z" fill="#D86613"/>
<path d="M12.92 35.2003H9.32002C9.10785 35.2003 8.90436 35.116 8.75433 34.966C8.60431 34.816 8.52002 34.6125 8.52002 34.4003V5.60029C8.52002 5.38812 8.60431 5.18464 8.75433 5.03461C8.90436 4.88458 9.10785 4.80029 9.32002 4.80029H30.92C31.1322 4.80029 31.3357 4.88458 31.4857 5.03461C31.6357 5.18464 31.72 5.38812 31.72 5.60029V9.20029H30.12V6.40029H10.12V33.6003H12.92V35.2003Z" fill="#D86613"/>
<path d="M9.07993 31.6082H5.47993C5.26776 31.6082 5.06428 31.5239 4.91425 31.3739C4.76422 31.2239 4.67993 31.0204 4.67993 30.8082V2.0002C4.67993 1.78802 4.76422 1.58454 4.91425 1.43451C5.06428 1.28448 5.26776 1.2002 5.47993 1.2002H27.0799C27.2921 1.2002 27.4956 1.28448 27.6456 1.43451C27.7956 1.58454 27.8799 1.78802 27.8799 2.0002V5.6002H26.2799V2.8002H6.27993V30.0002H9.07993V31.6082Z" fill="#D86613"/>
</svg>
