<svg width="40" height="40" viewBox="0 0 40 40" fill="none" xmlns="http://www.w3.org/2000/svg">
<path d="M33.6401 38.8004H6.40011C5.71913 38.8056 5.04384 38.6761 4.41317 38.4191C3.78251 38.1622 3.20895 37.7829 2.72555 37.3032C2.24216 36.8236 1.85849 36.2529 1.59668 35.6243C1.33487 34.9956 1.20009 34.3214 1.20011 33.6404V6.40035C1.19478 5.71599 1.32565 5.03741 1.58509 4.40411C1.84452 3.77082 2.22735 3.19545 2.71128 2.71152C3.19521 2.2276 3.77057 1.84477 4.40387 1.58533C5.03717 1.32589 5.71575 1.19503 6.40011 1.20035H33.6801C34.3577 1.20558 35.0277 1.34424 35.6517 1.6084C36.2758 1.87256 36.8417 2.25705 37.3171 2.73992C37.7925 3.22279 38.1682 3.79458 38.4227 4.42264C38.6771 5.0507 38.8054 5.72273 38.8001 6.40035V33.6804C38.7895 35.0419 38.2412 36.3441 37.2747 37.3032C36.3082 38.2622 35.0017 38.8004 33.6401 38.8004ZM6.40011 2.80035C5.92616 2.79608 5.45611 2.88628 5.01741 3.06569C4.57871 3.24509 4.18015 3.5101 3.84501 3.84525C3.50986 4.18039 3.24485 4.57895 3.06544 5.01766C2.88604 5.45636 2.79584 5.9264 2.80011 6.40035V33.6804C2.81276 34.6239 3.19865 35.524 3.87333 36.1836C4.54802 36.8433 5.45654 37.2089 6.40011 37.2004H33.6801C34.6236 37.1982 35.5279 36.8225 36.1951 36.1553C36.8622 35.4881 37.238 34.5839 37.2401 33.6404V6.40035C37.2444 5.9264 37.1542 5.45636 36.9748 5.01766C36.7954 4.57895 36.5303 4.18039 36.1952 3.84525C35.8601 3.5101 35.4615 3.24509 35.0228 3.06569C34.5841 2.88628 34.114 2.79608 33.6401 2.80035H6.40011Z" fill="#D86613"/>
<path d="M9.04009 16.7996L7.49609 16.3596C8.11617 14.2557 9.25506 12.3414 10.8081 10.7925C12.3611 9.2437 14.2785 8.10999 16.3841 7.49561L16.8001 9.03961C14.9606 9.58036 13.2862 10.5742 11.9304 11.9299C10.5747 13.2857 9.58085 14.9601 9.04009 16.7996Z" fill="#D86613"/>
<path d="M23.616 32.5042L23.2 30.9602C25.0395 30.4194 26.7138 29.4256 28.0696 28.0699C29.4254 26.7141 30.4192 25.0397 30.9599 23.2002L32.5039 23.6402C31.8839 25.7441 30.745 27.6584 29.1919 29.2073C27.6389 30.7561 25.7215 31.8898 23.616 32.5042Z" fill="#D86613"/>
<path d="M16.3841 32.5042C14.2758 31.8876 12.3565 30.7503 10.8033 29.197C9.25002 27.6437 8.11269 25.7245 7.49609 23.6162L9.04009 23.2002C9.58085 25.0397 10.5747 26.7141 11.9304 28.0699C13.2862 29.4256 14.9606 30.4194 16.8001 30.9602L16.3841 32.5042Z" fill="#D86613"/>
<path d="M30.9599 16.7996C30.4192 14.9601 29.4254 13.2857 28.0696 11.9299C26.7138 10.5742 25.0395 9.58036 23.2 9.03961L23.64 7.49561C25.7438 8.11568 27.6582 9.25457 29.207 10.8076C30.7559 12.3607 31.8896 14.278 32.5039 16.3836L30.9599 16.7996Z" fill="#D86613"/>
<path d="M14.44 16.9922L13.032 16.1922C13.7684 14.8398 14.8796 13.7286 16.232 12.9922L17.032 14.4002C15.9274 14.9844 15.0242 15.8876 14.44 16.9922Z" fill="#D86613"/>
<path d="M23.7761 26.9678L22.9761 25.5598C24.0868 24.9914 25.001 24.1023 25.6001 23.0078L27.0081 23.8078C26.2569 25.1499 25.1348 26.2471 23.7761 26.9678Z" fill="#D86613"/>
<path d="M16.2239 26.9683C14.8715 26.2318 13.7604 25.1207 13.0239 23.7683L14.4319 22.9683C15.0012 24.0831 15.8933 25.0003 16.9919 25.6003L16.2239 26.9683Z" fill="#D86613"/>
<path d="M25.5999 16.9917C25.0199 15.9077 24.1319 15.0197 23.0479 14.4397L23.8479 13.0317C25.2003 13.7682 26.3114 14.8793 27.0479 16.2317L25.5999 16.9917Z" fill="#D86613"/>
<path d="M22.9999 15.5522H17C16.7878 15.5522 16.5843 15.4679 16.4343 15.3178C16.2842 15.1678 16.2 14.9643 16.2 14.7522V5.75215C16.2 5.53998 16.2842 5.33649 16.4343 5.18646C16.5843 5.03643 16.7878 4.95215 17 4.95215H22.9999C23.2121 4.95215 23.4156 5.03643 23.5656 5.18646C23.7157 5.33649 23.7999 5.53998 23.7999 5.75215V14.7522C23.7999 14.9643 23.7157 15.1678 23.5656 15.3178C23.4156 15.4679 23.2121 15.5522 22.9999 15.5522ZM17.7999 13.9522H22.1999V6.55215H17.7999V13.9522Z" fill="#D86613"/>
<path d="M22.9999 35.0478H17C16.7878 35.0478 16.5843 34.9635 16.4343 34.8134C16.2842 34.6634 16.2 34.4599 16.2 34.2478V25.2478C16.2 25.0356 16.2842 24.8321 16.4343 24.6821C16.5843 24.532 16.7878 24.4478 17 24.4478H22.9999C23.2121 24.4478 23.4156 24.532 23.5656 24.6821C23.7157 24.8321 23.7999 25.0356 23.7999 25.2478V34.2478C23.7999 34.4599 23.7157 34.6634 23.5656 34.8134C23.4156 34.9635 23.2121 35.0478 22.9999 35.0478ZM17.7999 33.4478H22.1999V26.0478H17.7999V33.4478Z" fill="#D86613"/>
<path d="M14.7521 23.8002H5.75215C5.53998 23.8002 5.33649 23.7159 5.18646 23.5659C5.03643 23.4158 4.95215 23.2124 4.95215 23.0002V17.0002C4.95215 16.788 5.03643 16.5845 5.18646 16.4345C5.33649 16.2845 5.53998 16.2002 5.75215 16.2002H14.7521C14.9643 16.2002 15.1678 16.2845 15.3178 16.4345C15.4679 16.5845 15.5521 16.788 15.5521 17.0002V23.0002C15.5521 23.2124 15.4679 23.4158 15.3178 23.5659C15.1678 23.7159 14.9643 23.8002 14.7521 23.8002ZM6.55215 22.2002H13.9521V17.8002H6.55215V22.2002Z" fill="#D86613"/>
<path d="M34.248 23.8002H25.248C25.0358 23.8002 24.8323 23.7159 24.6823 23.5659C24.5323 23.4158 24.448 23.2124 24.448 23.0002V17.0002C24.448 16.788 24.5323 16.5845 24.6823 16.4345C24.8323 16.2845 25.0358 16.2002 25.248 16.2002H34.248C34.4602 16.2002 34.6637 16.2845 34.8137 16.4345C34.9637 16.5845 35.048 16.788 35.048 17.0002V23.0002C35.048 23.2124 34.9637 23.4158 34.8137 23.5659C34.6637 23.7159 34.4602 23.8002 34.248 23.8002ZM26.048 22.2002H33.448V17.8002H26.048V22.2002Z" fill="#D86613"/>
</svg>
