<svg width="40" height="40" viewBox="0 0 40 40" fill="none" xmlns="http://www.w3.org/2000/svg">
<path d="M12.72 24.8002C11.488 24.8002 10.552 24.7282 10.088 24.6802H9.928C9.74957 24.6601 9.58311 24.5805 9.45541 24.4542C9.32772 24.328 9.24621 24.1624 9.224 23.9842C9.168 23.5122 7.936 12.3282 14.088 6.05624C20.24 -0.215759 31.2 1.01624 31.68 1.07224C31.8582 1.09445 32.0237 1.17596 32.15 1.30366C32.2762 1.43135 32.3558 1.59781 32.376 1.77624C32.432 2.24824 33.664 13.4242 27.512 19.7042C23.2 24.1122 16.536 24.8002 12.72 24.8002ZM10.76 23.1282C13.056 23.2882 21.536 23.4962 26.368 18.5682C31.2 13.6402 31 5.00824 30.84 2.56824C28.456 2.44824 20 2.26424 15.2 7.20024C10.4 12.1362 10.6 20.7362 10.76 23.1442V23.1282Z" fill="#D86613"/>
<path d="M10.168 24.6959H10.064H9.928C9.74957 24.6757 9.58311 24.5961 9.45541 24.4698C9.32772 24.3436 9.24621 24.1781 9.224 23.9999C9.168 23.5279 7.936 12.3439 14.088 6.07188C20.24 -0.20012 31.2 1.01588 31.68 1.07188C31.8158 1.08834 31.9452 1.13937 32.0557 1.22009C32.1661 1.3008 32.2541 1.40851 32.3111 1.5329C32.368 1.6573 32.3922 1.79423 32.3811 1.93062C32.3701 2.067 32.3242 2.19827 32.248 2.31188C29.254 6.70605 25.8667 10.819 22.128 14.5999C18.5945 18.2471 14.7478 21.5772 10.632 24.5519C10.496 24.6468 10.3339 24.6971 10.168 24.6959ZM29.008 2.55188C25.528 2.55188 19.2 3.15188 15.2 7.19988C10.736 11.7519 10.568 19.4959 10.696 22.5359C14.3577 19.792 17.7977 16.7639 20.984 13.4799C24.3234 10.097 27.3815 6.44758 30.128 2.56788L29.008 2.55188Z" fill="#D86613"/>
<path d="M10.6959 22.5039H9.09595V38.2559H10.6959V22.5039Z" fill="#D86613"/>
</svg>
