<svg width="40" height="40" viewBox="0 0 40 40" fill="none" xmlns="http://www.w3.org/2000/svg">
<path d="M38 31.6478H1.99995C1.78778 31.6478 1.58429 31.5635 1.43427 31.4134C1.28424 31.2634 1.19995 31.0599 1.19995 30.8478V8.35176C1.19995 8.13958 1.28424 7.9361 1.43427 7.78607C1.58429 7.63604 1.78778 7.55176 1.99995 7.55176H38C38.2121 7.55176 38.4156 7.63604 38.5656 7.78607C38.7157 7.9361 38.8 8.13958 38.8 8.35176V30.8478C38.8 31.0599 38.7157 31.2634 38.5656 31.4134C38.4156 31.5635 38.2121 31.6478 38 31.6478ZM2.79995 30.0478H37.2V9.15176H2.79995V30.0478Z" fill="#D86613"/>
<path d="M6.5519 11.3521H4.9519V27.856H6.5519V11.3521Z" fill="#D86613"/>
<path d="M11.048 11.3521H9.448V27.856H11.048V11.3521Z" fill="#D86613"/>
<path d="M30.5519 11.3521H28.9519V27.856H30.5519V11.3521Z" fill="#D86613"/>
<path d="M35.048 11.3521H33.448V27.856H35.048V11.3521Z" fill="#D86613"/>
<path d="M24.6959 25.6478H15.3039C14.9453 25.6478 14.6014 25.5053 14.3479 25.2518C14.0943 24.9982 13.9519 24.6543 13.9519 24.2958V14.9038C13.9519 14.5452 14.0943 14.2013 14.3479 13.9477C14.6014 13.6942 14.9453 13.5518 15.3039 13.5518H24.6959C25.0545 13.5518 25.3984 13.6942 25.6519 13.9477C25.9055 14.2013 26.0479 14.5452 26.0479 14.9038V24.2958C26.0479 24.6543 25.9055 24.9982 25.6519 25.2518C25.3984 25.5053 25.0545 25.6478 24.6959 25.6478ZM15.5519 24.0478H24.4479V15.1518H15.5519V24.0478Z" fill="#D86613"/>
<path d="M16.3041 12.104H14.7041V14.352H16.3041V12.104Z" fill="#D86613"/>
<path d="M19.3041 12.104H17.7041V14.352H19.3041V12.104Z" fill="#D86613"/>
<path d="M22.3041 12.104H20.7041V14.352H22.3041V12.104Z" fill="#D86613"/>
<path d="M25.3041 12.104H23.7041V14.352H25.3041V12.104Z" fill="#D86613"/>
<path d="M16.3041 24.8481H14.7041V27.0961H16.3041V24.8481Z" fill="#D86613"/>
<path d="M19.3041 24.8481H17.7041V27.0961H19.3041V24.8481Z" fill="#D86613"/>
<path d="M22.3041 24.8481H20.7041V27.0961H22.3041V24.8481Z" fill="#D86613"/>
<path d="M25.3041 24.8481H23.7041V27.0961H25.3041V24.8481Z" fill="#D86613"/>
<path d="M14.7519 14.3042H12.5039V15.9042H14.7519V14.3042Z" fill="#D86613"/>
<path d="M14.7519 17.3042H12.5039V18.9042H14.7519V17.3042Z" fill="#D86613"/>
<path d="M14.7519 20.3042H12.5039V21.9042H14.7519V20.3042Z" fill="#D86613"/>
<path d="M14.7519 23.3042H12.5039V24.9042H14.7519V23.3042Z" fill="#D86613"/>
<path d="M27.496 14.3042H25.248V15.9042H27.496V14.3042Z" fill="#D86613"/>
<path d="M27.496 17.3042H25.248V18.9042H27.496V17.3042Z" fill="#D86613"/>
<path d="M27.496 20.3042H25.248V21.9042H27.496V20.3042Z" fill="#D86613"/>
<path d="M27.496 23.3042H25.248V24.9042H27.496V23.3042Z" fill="#D86613"/>
</svg>
