<svg width="64" height="64" viewBox="0 0 64 64" fill="none" xmlns="http://www.w3.org/2000/svg">
<path fill-rule="evenodd" clip-rule="evenodd" d="M8.43939 38.8243C7.17603 37.561 6.66691 35.8073 6.94976 34.1669L9.84946 17.1088C10.1343 15.4332 11.4469 14.1206 13.1225 13.8357L30.1806 10.936C31.8211 10.6532 33.5747 11.1623 34.838 12.4257L55.561 33.1863C57.6352 35.2605 57.654 38.6358 55.5798 40.7099L36.7237 59.5661C34.6495 61.6403 31.2742 61.6214 29.2 59.5473L8.43939 38.8243ZM16.5 22C17.3284 22 18 21.3284 18 20.5C18 19.6716 17.3284 19 16.5 19C15.6716 19 15 19.6716 15 20.5C15 21.3284 15.6716 22 16.5 22Z" fill="#36CFC9"/>
</svg>
